<?xml version="1.0" encoding="UTF-8"?>
<svg width="12px" height="12px" viewBox="0 0 12 12" version="1.1" xmlns="http://www.w3.org/2000/svg" xmlns:xlink="http://www.w3.org/1999/xlink">
    <!-- Generator: sketchtool 60.1 (101010) - https://sketch.com -->
    <title>B28EA416-5BCB-42B5-BD5F-4F1D767E1852</title>
    <desc>Created with sketchtool.</desc>
    <g id="Page-1" stroke="none" stroke-width="1" fill="none" fill-rule="evenodd">
        <g id="Agenda---Style-Guide" transform="translate(-916.000000, -295.000000)" fill="#FFFFFF">
            <g id="Theme-Dropdown" transform="translate(638.000000, 143.000000)">
                <g id="Dropdown" transform="translate(75.000000, 91.000000)">
                    <g id="01" transform="translate(10.000000, 46.000000)">
                        <g id="Icons-/-Check" transform="translate(193.000000, 15.000000)">
                            <path d="M10.0594595,1.99508586 L4.61703766,7.62888437 L1.89398434,4.76424106 C1.4661154,4.31281553 0.766216284,4.30640281 0.33071591,4.74991784 C-0.104784463,5.19343288 -0.11097096,5.91892555 0.316897981,6.37035108 L3.81744014,10.065741 L3.81744014,10.065741 L3.81744014,10.065741 C3.84952371,10.0964683 3.88336203,10.1251666 3.91877162,10.1516802 C3.9427227,10.1707779 3.96298899,10.193695 3.98694007,10.2089731 C4.02546846,10.2338318 4.06546574,10.2561563 4.10669546,10.2758148 C4.13064654,10.2891831 4.15459762,10.3044612 4.1785487,10.3159198 C4.22482593,10.3338641 4.27222239,10.3485392 4.32041277,10.3598443 C4.34252146,10.3598443 4.36278776,10.3751224 4.38489644,10.378942 C4.52422801,10.4070193 4.66747233,10.4070193 4.80680389,10.378942 C4.82891258,10.378942 4.84917888,10.3655736 4.87128756,10.3598443 C4.91881041,10.3490807 4.96558804,10.3350446 5.01130925,10.3178296 C5.03710272,10.306371 5.0610538,10.2910929 5.08684727,10.2777246 C5.12673074,10.2591682 5.16549207,10.2381222 5.20291787,10.2147024 C5.22686895,10.1975145 5.24897764,10.1765072 5.27292872,10.1574095 C5.30828485,10.1315092 5.34212188,10.1034497 5.3742602,10.07338 L5.3742602,10.07338 L5.3742602,10.07338 L11.6218068,3.60883493 C11.9329809,3.32705133 12.0665718,2.88890421 11.9681431,2.47293222 C11.8697145,2.05696022 11.5557,1.73261458 11.1540561,1.63206148 C10.7524123,1.53150837 10.330198,1.67153629 10.0594595,1.99508586 Z" id="Path"></path>
                        </g>
                    </g>
                </g>
            </g>
        </g>
    </g>
</svg>