<?xml version="1.0" encoding="UTF-8"?>
<svg width="20px" height="20px" viewBox="0 0 20 20" version="1.1" xmlns="http://www.w3.org/2000/svg" xmlns:xlink="http://www.w3.org/1999/xlink">
    <!-- Generator: sketchtool 60.1 (101010) - https://sketch.com -->
    <title>5EE09390-5697-47D9-9EEB-CD20DA2DAC6D</title>
    <desc>Created with sketchtool.</desc>
    <g id="Page-1" stroke="none" stroke-width="1" fill="none" fill-rule="evenodd">
        <g id="Search" transform="translate(-1380.000000, -40.000000)" fill="#272B37" fill-rule="nonzero">
            <g id="Icons-/-Close" transform="translate(1380.000000, 40.000000)">
                <g id="Group">
                    <line x1="1.42735646" y1="1.39293787" x2="18.5702136" y2="18.535795" id="Path"></line>
                    <path d="M18.5702136,19.9643664 C18.1914606,19.964033 17.8283419,19.8133045 17.5606898,19.5453188 L0.417832651,2.40246168 C-0.106660417,1.83958595 -0.0911842559,0.962443158 0.452838748,0.418420154 C0.996861752,-0.125602849 1.87400455,-0.14107901 2.43688027,0.383414057 L19.5797374,17.5262712 C19.9877761,17.9348175 20.109753,18.5488275 19.8888555,19.082316 C19.6679579,19.6158044 19.1476263,19.9638586 18.5702136,19.9643664 Z" id="Path"></path>
                    <line x1="1.42735646" y1="18.535795" x2="18.5702136" y2="1.39293787" id="Path"></line>
                    <path d="M1.42735646,19.9643664 C0.849943785,19.9638586 0.329612161,19.6158044 0.108714601,19.082316 C-0.11218296,18.5488275 0.00979397888,17.9348175 0.417832651,17.5262712 L17.5606898,0.383414057 C18.1235655,-0.14107901 19.0007083,-0.125602849 19.5447313,0.418420154 C20.0887543,0.962443158 20.1042305,1.83958595 19.5797374,2.40246168 L2.43688027,19.5453188 C2.16922816,19.8133045 1.80610951,19.964033 1.42735646,19.9643664 Z" id="Path"></path>
                </g>
            </g>
        </g>
    </g>
</svg>