<?xml version="1.0" encoding="UTF-8"?>
<svg width="7px" height="15px" viewBox="0 0 7 15" version="1.1" xmlns="http://www.w3.org/2000/svg" xmlns:xlink="http://www.w3.org/1999/xlink">
    <!-- Generator: sketchtool 60.1 (101010) - https://sketch.com -->
    <title>F6826180-8EAD-43EF-ABD4-C73F7653DF01</title>
    <desc>Created with sketchtool.</desc>
    <g id="Page-1" stroke="none" stroke-width="1" fill="none" fill-rule="evenodd">
        <g id="Homepage" transform="translate(-1270.000000, -6815.000000)" fill="#272B37" fill-rule="nonzero">
            <g id="Footer" transform="translate(0.000000, 6526.000000)">
                <g id="Social-Media">
                    <g transform="translate(1270.000000, 289.000000)">
                        <path d="M6.73675365,0.00312100122 L5.05768394,0 C3.17130671,0 1.95224687,1.44892482 1.95224687,3.69152024 L1.95224687,5.39355825 L0.264017379,5.39355825 C0.118134307,5.39355825 0,5.53057021 0,5.69957242 L0,8.16563153 C0,8.33463375 0.118269009,8.47148965 0.264017379,8.47148965 L1.95224687,8.47148965 L1.95224687,14.6941419 C1.95224687,14.8631441 2.07038118,15 2.21626425,15 L4.41892352,15 C4.5648066,15 4.6829409,14.862988 4.6829409,14.6941419 L4.6829409,8.47148965 L6.65687492,8.47148965 C6.80275799,8.47148965 6.9208923,8.33463375 6.9208923,8.16563153 L6.92170051,5.69957242 C6.92170051,5.61842639 6.89381704,5.54071346 6.84438114,5.48328704 C6.79494523,5.42586062 6.72759386,5.39355825 6.65754843,5.39355825 L4.6829409,5.39355825 L4.6829409,3.95071939 C4.6829409,3.25723292 4.82559111,2.90518398 5.6053853,2.90518398 L6.73648424,2.90471583 C6.88223261,2.90471583 7.00036692,2.76770388 7.00036692,2.59885771 L7.00036692,0.308979121 C7.00036692,0.140289005 6.88236731,0.00343310134 6.73675365,0.00312100122 Z" id="fb"></path>
                    </g>
                </g>
            </g>
        </g>
    </g>
</svg>