<?xml version="1.0" encoding="UTF-8"?>
<svg width="10px" height="6px" viewBox="0 0 10 6" version="1.1" xmlns="http://www.w3.org/2000/svg" xmlns:xlink="http://www.w3.org/1999/xlink">
    <!-- Generator: sketchtool 60.1 (101010) - https://sketch.com -->
    <title>A76C439A-1911-43F1-91EA-9BA9A171B100</title>
    <desc>Created with sketchtool.</desc>
    <g id="Page-1" stroke="none" stroke-width="1" fill="none" fill-rule="evenodd">
        <g id="Contact" transform="translate(-678.000000, -932.000000)" fill="#4E566E">
            <g id="Form" transform="translate(188.000000, 903.000000)">
                <g id="Input-Field-/-Default">
                    <g id="Icons-/-Input-Field-/-Arrow" transform="translate(490.000000, 29.000000)">
                        <path d="M0.278448382,1.45539704 L4.44883354,5.75633713 C4.60007874,5.91232579 4.80549328,6 5.01971858,6 C5.23394388,6 5.43935842,5.91232579 5.59060362,5.75633713 L9.7635317,1.45539704 C10.0788228,1.131224 10.0788228,0.605635683 9.76353167,0.281462657 C9.44824058,-0.042710369 8.93705272,-0.0427103794 8.62176161,0.281462634 L5.02099004,3.99412824 L1.42021846,0.291920847 C1.22413988,0.0548476306 0.915420982,-0.0493129076 0.620848491,0.0222165729 C0.326275999,0.0937460533 0.095500044,0.328909274 0.023297224,0.631127845 C-0.048905596,0.933346416 0.0496344885,1.25168146 0.278448382,1.45539704 Z" id="Icons-/-Arrow"></path>
                    </g>
                </g>
            </g>
        </g>
    </g>
</svg>