<?xml version="1.0" encoding="UTF-8"?>
<svg width="20px" height="20px" viewBox="0 0 20 20" version="1.1" xmlns="http://www.w3.org/2000/svg" xmlns:xlink="http://www.w3.org/1999/xlink">
    <!-- Generator: sketchtool 60.1 (101010) - https://sketch.com -->
    <title>F9A3A2F4-7B70-4A99-BFF1-1484B316893B</title>
    <desc>Created with sketchtool.</desc>
    <g id="Page-1" stroke="none" stroke-width="1" fill="none" fill-rule="evenodd">
        <g id="Contact" transform="translate(-668.000000, -1321.000000)" fill="#D44B41">
            <g id="Form" transform="translate(188.000000, 903.000000)">
                <g id="Input-Field-/-Invalid" transform="translate(0.000000, 396.000000)">
                    <g id="Input-Field">
                        <g id="Icons-/-Invalid" transform="translate(480.000000, 22.000000)">
                            <path d="M10,0 C15.5228475,0 20,4.4771525 20,10 C20,15.5228475 15.5228475,20 10,20 C4.4771525,20 -5.68434189e-14,15.5228475 -5.68434189e-14,10 C-5.68434189e-14,4.4771525 4.4771525,0 10,0 Z M10.001328,12.6668914 C9.31834154,12.6668914 8.76467163,13.2205613 8.76467163,13.9035478 C8.76467163,14.5865342 9.31834154,15.1402041 10.001328,15.1402041 C10.6843144,15.1402041 11.2379843,14.5865342 11.2379843,13.9035478 C11.2379843,13.2205613 10.6843144,12.6668914 10.001328,12.6668914 Z M9.99049983,4.48857426 C9.72694677,4.50083254 9.45317847,4.58664052 9.26726119,4.78685912 C9.08543001,4.98707773 8.96897633,5.23224337 8.96897633,5.51009776 L8.96897633,10.8792253 L8.96897633,10.8792253 C8.96897633,11.1407353 9.08338696,11.4165466 9.26726119,11.6024639 C9.44500628,11.780209 9.73511896,11.9130071 9.99049983,11.9007488 C10.2540529,11.8884905 10.5278212,11.8026825 10.7137385,11.6024639 C10.8976127,11.4022453 11.0120233,11.1570797 11.0120233,10.8792253 L11.0120233,5.51009776 L11.0120233,5.51009776 C11.0120233,5.24858774 10.8976127,4.9727764 10.7137385,4.78685912 C10.5359934,4.60911403 10.2458807,4.47631598 9.99049983,4.48857426 Z" id="Combined-Shape"></path>
                        </g>
                    </g>
                </g>
            </g>
        </g>
    </g>
</svg>