<?xml version="1.0" encoding="UTF-8"?>
<svg width="16px" height="16px" viewBox="0 0 16 16" version="1.1" xmlns="http://www.w3.org/2000/svg" xmlns:xlink="http://www.w3.org/1999/xlink">
    <!-- Generator: sketchtool 60.1 (101010) - https://sketch.com -->
    <title>91BAC12B-F63D-4ADB-A926-AF39240AEA09</title>
    <desc>Created with sketchtool.</desc>
    <g id="Page-1" stroke="none" stroke-width="1" fill="none" fill-rule="evenodd">
        <g id="Mobile" transform="translate(-301.000000, -29.000000)" fill="#272B37" fill-rule="nonzero">
            <g id="TopNav" transform="translate(0.000000, -1.000000)">
                <path d="M316.734481,44.4864865 L313.862938,41.6363636 C316.105101,38.7665848 315.869084,34.6781327 313.292563,32.1031941 C311.935464,30.7469287 310.125999,30 308.198525,30 C306.271051,30 304.461586,30.7469287 303.104487,32.1031941 C301.747388,33.4594595 301,35.2678133 301,37.1941032 C301,39.1203931 301.747388,40.9287469 303.104487,42.2850123 C304.461586,43.6412776 306.271051,44.3882064 308.198525,44.3882064 C309.791641,44.3882064 311.365089,43.8574939 312.623848,42.8550369 L315.475722,45.7444717 C315.652735,45.9213759 315.869084,46 316.105101,46 C316.341119,46 316.557468,45.9017199 316.734481,45.7444717 C317.088506,45.4103194 317.088506,44.8402948 316.734481,44.4864865 Z M313.626921,37.1941032 C313.626921,38.6486486 313.056546,40.004914 312.033805,41.027027 C311.011063,42.04914 309.634296,42.6191646 308.198525,42.6191646 C306.762754,42.6191646 305.385986,42.04914 304.363245,41.027027 C303.340504,40.004914 302.770129,38.6289926 302.770129,37.1941032 C302.770129,35.7395577 303.340504,34.3832924 304.363245,33.3611794 C305.385986,32.3390663 306.762754,31.7690418 308.198525,31.7690418 C309.653964,31.7690418 311.011063,32.3390663 312.033805,33.3611794 C313.056546,34.3832924 313.626921,35.7395577 313.626921,37.1941032 Z" id="Shape"></path>
            </g>
        </g>
    </g>
</svg>