<?xml version="1.0" encoding="UTF-8"?>
<svg width="12px" height="7px" viewBox="0 0 12 7" version="1.1" xmlns="http://www.w3.org/2000/svg" xmlns:xlink="http://www.w3.org/1999/xlink">
    <!-- Generator: sketchtool 60.1 (101010) - https://sketch.com -->
    <title>8C759550-EC59-4BE8-BD6F-904556A55233</title>
    <desc>Created with sketchtool.</desc>
    <g id="Page-1" stroke="none" stroke-width="1" fill="none" fill-rule="evenodd">
        <g id="Homepage" transform="translate(-1328.000000, -6631.000000)" fill="#4E566E">
            <g id="Footer" transform="translate(0.000000, 6526.000000)">
                <g id="Subscribe">
                    <g transform="translate(949.000000, 82.000000)">
                        <path d="M379.450102,25.8412682 L379.440102,25.8412682 L388.790102,25.8412682 L387.110102,24.0642682 C386.936635,23.8807757 386.936635,23.5937606 387.110102,23.4102682 L387.370102,23.1342682 C387.450444,23.0486012 387.562655,23 387.680102,23 C387.797548,23 387.909759,23.0486012 387.990102,23.1342682 L390.870102,26.1732682 C391.043568,26.3567606 391.043568,26.6437757 390.870102,26.8272682 L387.990102,29.8662682 C387.90961,29.9516658 387.797454,30.0000764 387.680102,30.0000764 C387.562749,30.0000764 387.450593,29.9516658 387.370102,29.8662682 L387.110102,29.5902682 C387.027591,29.5016403 386.981219,29.3853532 386.980102,29.2642682 C386.98125,29.1449679 387.027724,29.0305689 387.110102,28.9442682 L388.810102,27.1582682 L379.440102,27.1582682 C379.189739,27.145355 378.994906,26.9359098 379,26.6852682 L379,26.2952682 C379.001704,26.0467513 379.201609,25.8450697 379.450102,25.8412682 Z" id="Arrow"></path>
                    </g>
                </g>
            </g>
        </g>
    </g>
</svg>