<?xml version="1.0" encoding="UTF-8"?>
<svg width="11px" height="14px" viewBox="0 0 11 14" version="1.1" xmlns="http://www.w3.org/2000/svg" xmlns:xlink="http://www.w3.org/1999/xlink">
    <!-- Generator: sketchtool 60.1 (101010) - https://sketch.com -->
    <title>EF2CBB81-55F1-46EA-8DF4-E007D6A81124</title>
    <desc>Created with sketchtool.</desc>
    <g id="Page-1" stroke="none" stroke-width="1" fill="none" fill-rule="evenodd" opacity="0.8">
        <g id="Homepage" transform="translate(-406.000000, -4407.000000)" fill="#FFFFFF">
            <g id="Agenda" transform="translate(0.000000, 4088.000000)">
                <g id="02" transform="translate(406.000000, 257.000000)">
                    <g id="Address" transform="translate(0.000000, 62.000000)">
                        <g id="Icons-/-Pin">
                            <path d="M5.5,0 C8.51879699,0 11,2.33994334 11,5.27478754 C10.9172932,8.16997167 7.56766917,12.0963173 5.5,14 C3.43233083,12.2549575 0.0827067669,8.0509915 0,5.27478754 C0,2.33994334 2.43984962,0 5.5,0 Z M5.5,3.13314448 C6.69924812,3.13314448 7.69172932,4.08498584 7.69172932,5.27478754 C7.69172932,6.42492918 6.69924812,7.37677054 5.5,7.37677054 C4.2593985,7.37677054 3.26691729,6.42492918 3.26691729,5.27478754 C3.26691729,4.08498584 4.2593985,3.13314448 5.5,3.13314448 Z" id="Shape"></path>
                        </g>
                    </g>
                </g>
            </g>
        </g>
    </g>
</svg>