<?xml version="1.0" encoding="UTF-8"?>
<svg width="16px" height="16px" viewBox="0 0 16 16" version="1.1" xmlns="http://www.w3.org/2000/svg" xmlns:xlink="http://www.w3.org/1999/xlink">
    <!-- Generator: sketchtool 60.1 (101010) - https://sketch.com -->
    <title>E456FBA4-69E7-4A79-A8C7-DC61CD83D48A</title>
    <desc>Created with sketchtool.</desc>
    <g id="Page-1" stroke="none" stroke-width="1" fill="none" fill-rule="evenodd">
        <g id="Homepage" transform="translate(-1344.000000, -14.000000)" fill="#FFFFFF" fill-rule="nonzero">
            <g id="Bg">
                <g id="TopNav" transform="translate(80.000000, 14.000000)">
                    <g id="Secondary-Menu">
                        <g transform="translate(907.000000, 0.000000)">
                            <path d="M372.734481,14.4864865 L369.862938,11.6363636 C372.105101,8.76658477 371.869084,4.67813268 369.292563,2.1031941 C367.935464,0.746928747 366.125999,0 364.198525,0 C362.271051,0 360.461586,0.746928747 359.104487,2.1031941 C357.747388,3.45945946 357,5.26781327 357,7.19410319 C357,9.12039312 357.747388,10.9287469 359.104487,12.2850123 C360.461586,13.6412776 362.271051,14.3882064 364.198525,14.3882064 C365.791641,14.3882064 367.365089,13.8574939 368.623848,12.8550369 L371.475722,15.7444717 C371.652735,15.9213759 371.869084,16 372.105101,16 C372.341119,16 372.557468,15.9017199 372.734481,15.7444717 C373.088506,15.4103194 373.088506,14.8402948 372.734481,14.4864865 Z M369.626921,7.19410319 C369.626921,8.64864865 369.056546,10.004914 368.033805,11.027027 C367.011063,12.04914 365.634296,12.6191646 364.198525,12.6191646 C362.762754,12.6191646 361.385986,12.04914 360.363245,11.027027 C359.340504,10.004914 358.770129,8.62899263 358.770129,7.19410319 C358.770129,5.73955774 359.340504,4.38329238 360.363245,3.36117936 C361.385986,2.33906634 362.762754,1.76904177 364.198525,1.76904177 C365.653964,1.76904177 367.011063,2.33906634 368.033805,3.36117936 C369.056546,4.38329238 369.626921,5.73955774 369.626921,7.19410319 Z" id="Shape"></path>
                        </g>
                    </g>
                </g>
            </g>
        </g>
    </g>
</svg>