<?xml version="1.0" encoding="UTF-8"?>
<svg width="16px" height="15px" viewBox="0 0 16 15" version="1.1" xmlns="http://www.w3.org/2000/svg" xmlns:xlink="http://www.w3.org/1999/xlink">
    <!-- Generator: sketchtool 60.1 (101010) - https://sketch.com -->
    <title>1A6641C8-DACC-4A2B-9449-BB5BF7121BA5</title>
    <desc>Created with sketchtool.</desc>
    <g id="Page-1" stroke="none" stroke-width="1" fill="none" fill-rule="evenodd">
        <g id="Plan-your-Trip" transform="translate(-434.000000, -3607.000000)" fill="#FAAC3E" fill-rule="nonzero">
            <g id="Similar-Hotels" transform="translate(120.000000, 3167.000000)">
                <g id="Hotel-1" transform="translate(0.000000, 159.000000)">
                    <path d="M322,281 C321.751263,281 321.500761,281.128131 321.373746,281.382662 L319.279765,285.545192 L314.599619,286.21182 C314.026288,286.293201 313.796955,286.985802 314.211518,287.382316 L317.598581,290.621955 L316.799446,295.196583 C316.721826,295.639848 317.081701,296 317.489207,296 C317.596817,296 317.707955,295.975759 317.815565,295.920351 L322,293.761168 L326.186199,295.920351 C326.293809,295.975759 326.404947,296 326.512557,296 C326.920063,296 327.278174,295.639848 327.200554,295.196583 L326.401419,290.621955 L329.788482,287.382316 C330.203045,286.985802 329.973712,286.293201 329.400381,286.21182 L324.720235,285.545192 L322.626254,281.382662 C322.499239,281.128131 322.248737,281 322,281 L322,281 Z" id="Path"></path>
                </g>
            </g>
        </g>
    </g>
</svg>